# AST/ASF file generated using VICON BodyLanguage
# -----------------------------------------------
:version 1.10
:name VICON
:units
  mass 1.0
  length 0.45
  angle deg
:documentation
   .ast/.asf automatically generated from VICON data using
   VICON BodyBuilder and BodyLanguage model FoxedUp or BRILLIANT.MOD
:root
   order TX TY TZ RX RY RZ
   axis XYZ
   position 0 0 0  
   orientation 0 0 0 
:bonedata
  begin
     id 1 
     name lhipjoint
     direction 0.700308 -0.549349 0.455834 
     length 2.59063 
     axis 0 0 0  XYZ
  end
  begin
     id 2 
     name lfemur
     direction 0.34202 -0.939693 0  
     length 6.31066  
     axis 0 0 20  XYZ
    dof rx ry rz
    limits (-160.0 20.0)
           (-70.0 70.0)
           (-60.0 70.0)
  end
  begin
     id 3 
     name ltibia
     direction 0.34202 -0.939693 0   
     length 7.36093   
     axis 0 0 20   XYZ
    dof rx
    limits (-10.0 170.0)
  end
  begin
     id 4 
     name lfoot
     direction 0.0905332 -0.248738 0.96433   
     length 2.0233   
     axis -90 7.62852e-016 20   XYZ
    dof rx rz
    limits (-45.0 90.0)
           (-70.0 20.0)
  end
  begin
     id 5 
     name ltoes
     direction 1.53573e-011 -4.21855e-011 1   
     length 1.01524   
     axis -90 7.62852e-016 20   XYZ
    dof rx
    limits (-90.0 20.0)
  end
  begin
     id 6 
     name rhipjoint
     direction -0.61416 -0.607328 0.503944   
     length 2.34332  
     axis 0 0 0  XYZ 
  end
  begin
     id 7 
     name rfemur
     direction -0.34202 -0.939693 0   
     length 6.58548   
     axis 0 0 -20   XYZ
    dof rx ry rz
    limits (-160.0 20.0)
           (-70.0 70.0)
           (-70.0 60.0)
  end
  begin
     id 8 
     name rtibia
     direction -0.34202 -0.939693 0   
     length 7.20707   
     axis 0 0 -20   XYZ
    dof rx
    limits (-10.0 170.0)
 end
 begin
     id 9 
     name rfoot
     direction -0.136772 -0.375778 0.916561   
     length 1.92184  
     axis -90 -7.62852e-016 -20   XYZ
    dof rx rz
    limits (-45.0 90.0)
           (-20.0 70.0)
  end
  begin
     id 10 
     name rtoes
     direction -1.53535e-011 -4.21828e-011 1   
     length 0.951089   
     axis -90 -7.62852e-016 -20   XYZ
    dof rx
    limits (-90.0 20.0)
  end
  begin
     id 11 
     name lowerback
     direction -0.0444974 0.988086 -0.147332   
     length 1.9609   
     axis 0 0 0   XYZ
    dof rx ry rz
    limits (-20.0 45.0)
           (-30.0 30.0)
           (-30.0 30.0)
  end
  begin
     id 12 
     name upperback
     direction 0.00613146 0.999513 0.0306081   
     length 1.94944   
     axis 0 0 0   XYZ
    dof rx ry rz
    limits (-20.0 45.0)
           (-30.0 30.0)
           (-30.0 30.0)
  end
  begin
     id 13 
     name thorax
     direction 0.0254621 0.994518 0.101418   
     length 2.0119   
     axis 0 0 0   XYZ
    dof rx ry rz
    limits (-20.0 45.0)
           (-30.0 30.0)
           (-30.0 30.0)
  end
  begin
     id 14 
     name lowerneck
     direction 0.0168698 0.977854 0.208608   
     length 1.6375   
     axis 0 0 0   XYZ
    dof rx ry rz
    limits (-20.0 45.0)
           (-30.0 30.0)
           (-30.0 30.0)
  end
  begin
     id 15 
     name upperneck
     direction -0.0283988 0.989338 -0.142843   
     length 1.6851   
     axis 0 0 0   XYZ
    dof rx ry rz
    limits (-20.0 45.0)
           (-30.0 30.0)
           (-30.0 30.0)
  end
  begin
     id 16
     name head
     direction -0.0129422 0.99741 -0.0707489  
     length 1.69029  
     axis 0 0 0   XYZ
    dof rx ry rz
    limits (-20.0 45.0)
           (-30.0 30.0)
           (-30.0 30.0)
  end
  begin
     id 17 
     name lclavicle
     direction 0.820295 0.564628 -0.0911715  
     length 3.16484  
     axis 0 0 0   XYZ
    dof ry rz
    limits (-20.0 10.0)
           (0.0 20.0)
  end
  begin
     id 18 
     name lhumerus
     direction 1 -4.48969e-011 1.00186e-027   
     length 5.17853   
     axis 180 -30 -90   XYZ
    dof rx ry rz
    limits (-60.0 90.0)
           (-90.0 90.0)
           (-90.0 90.0)
  end
  begin
     id 19
     name lradius
     direction 1 -4.48966e-011 -1.52922e-027   
     length 3.40399   
     axis 180 -30 -90   XYZ
    dof rx
    limits (-10.0 170.0)
  end
  begin
     id 20
     name lwrist
     direction 1 -4.48981e-011 -3.80893e-027   
     length 1.70199   
     axis 1.1049e-015 90 90   XYZ
    dof ry
    limits (-180.0 0.0)
 end
  begin
     id 21 
     name lhand
     direction 1 -4.48957e-011 -7.61786e-027   
     length 0.708964   
     axis 4.86085e-015 90 90   XYZ
    dof rx rz
    limits (-90.0 90.0)
           (-45.0 45.0)
  end
  begin
     id 22 
     name lfingers
     direction 1 -4.48929e-011 -1.52357e-026   
     length 0.571585   
     axis 9.7217e-015 90 90   XYZ
    dof rx
    limits (0.0 90.0)
  end
  begin
     id 23
     name lthumb
     direction 0.707107 -6.34905e-011 0.707107   
     length 0.820685   
     axis -90 45 2.85299e-015   XYZ
    dof rx rz
    limits (-45.0 45.0)
           (-45.0 45.0)
  end
  begin
     id 24 
     name rclavicle
     direction -0.858602 0.463947 -0.218075   
     length 3.35137  
     axis 0 0 0   XYZ 
    dof ry rz
    limits (-10.0 20.0)
           (-20.0 0.0)
  end
  begin
     id 25 
     name rhumerus
     direction -1 -4.48969e-011 -1.98511e-027  
     length 5.42351   
     axis 180 30 90   XYZ
    dof rx ry rz
    limits (-90.0 60.0)
           (-90.0 90.0)
           (-90.0 90.0)
  end
  begin
     id 26 
     name rradius
     direction -1 -4.48961e-011 -2.82624e-027   
     length 3.42066   
     axis 180 30 90   XYZ
    dof rx
    limits (-10.0 170.0)
  end
  begin
     id 27 
     name rwrist
     direction -1 -4.48966e-011 -3.80893e-027   
     length 1.71033   
     axis 1.1049e-015 -90 -90   XYZ
    dof ry
    limits (-180.0 0.0)
  end
  begin
     id 28
     name rhand
     direction -1 -4.48964e-011 -7.61786e-027   
     length 0.743608   
     axis 4.86085e-015 -90 -90   XYZ
    dof rx rz
    limits (-90.0 90.0)
           (-45.0 45.0)
  end
  begin
     id 29
     name rfingers
     direction -1 -4.48961e-011 -1.52357e-026   
     length 0.599516   
     axis 9.7217e-015 -90 -90   XYZ
    dof rx
    limits (0.0 90.0)
  end
  begin
     id 30
     name rthumb
     direction -0.707107 -6.34913e-011 0.707107   
     length 0.860789   
     axis -90 -45 -2.85299e-015   XYZ
    dof rx rz
    limits (-45.0 45.0)
           (-45.0 45.0)
  end
:hierarchy
  begin
    root lhipjoint rhipjoint lowerback
    lhipjoint lfemur
    lfemur ltibia
    ltibia lfoot
    lfoot ltoes
    rhipjoint rfemur
    rfemur rtibia
    rtibia rfoot
    rfoot rtoes
    lowerback upperback
    upperback thorax
    thorax lowerneck lclavicle rclavicle
    lowerneck upperneck
    upperneck head
    lclavicle lhumerus
    lhumerus lradius
    lradius lwrist
    lwrist lhand lthumb
    lhand lfingers
    rclavicle rhumerus
    rhumerus rradius
    rradius rwrist
    rwrist rhand rthumb
    rhand rfingers
  end

#!OML:ASF E:\mmandel\Project 1\Capture day 1\Session 2\Subject.ASF
:FULLY-SPECIFIED
:DEGREES
545
root 4.39298 15.6613 -0.605675 178.072 86.9862 163.289
lowerback 26.1955 1.69853 3.36836
upperback 5.35309 3.59409 0.675227
thorax -8.40501 1.81186 -2.37682
lowerneck -18.3635 -0.427847 0.642848
upperneck 10.5653 0.608679 -8.24629
head 6.24974 -0.337229 -2.69457
rclavicle -7.95139e-016 3.18055e-014
rhumerus -11.7563 10.1801 -73.1966
rradius 22.7828
rwrist -8.3297
rhand -7.42556 28.2133
rfingers 7.12502
rthumb 18.4615 -0.930604
lclavicle -7.95139e-016 3.18055e-014
lhumerus -45.2465 -13.8037 90.8746
lradius 38.9262
lwrist 23.2605
lhand -5.1216 331.849
lfingers 7.12502
lthumb 20.6766 0.767393
rfemur -29.2908 -12.4926 19.8646
rtibia 50.1101
rfoot -38.3756 -18.3087
rtoes -8.40022
lfemur -44.6854 6.18407 -7.7904
ltibia 30.2161
lfoot -8.57893 2.77303
ltoes -5.80014
546
root 4.42667 15.6661 -0.635679 184.173 87.2403 169.463
lowerback 26.0413 1.74083 3.59449
upperback 5.23218 3.69578 0.691541
thorax -8.44283 1.84761 -2.51577
lowerneck -18.0417 -0.39779 0.567934
upperneck 10.295 0.624483 -8.13511
head 6.10997 -0.310409 -2.63761
rclavicle 3.10104e-014 1.11319e-014
rhumerus -11.6301 9.74473 -73.1962
rradius 22.4703
rwrist -8.14195
rhand -7.43052 27.9831
rfingers 7.12502
rthumb 18.4567 -1.16126
lclavicle 3.10104e-014 1.11319e-014
lhumerus -45.5643 -13.8777 90.9123
lradius 38.875
lwrist 22.7849
lhand -4.45586 332.036
lfingers 7.12502
lthumb 21.3161 0.883193
rfemur -28.9528 -12.4517 20.0811
rtibia 49.769
rfoot -38.1657 -18.2062
rtoes -8.22755
lfemur -44.5208 6.35949 -7.60151
ltibia 30.2716
lfoot -8.71681 2.65709
ltoes -4.78563
547
root 4.4586 15.6664 -0.66815 188.411 87.4231 173.726
lowerback 25.8382 1.74946 3.65357
upperback 5.17624 3.70669 0.680069
thorax -8.39661 1.84915 -2.55663
lowerneck -17.8379 -0.321362 0.637817
upperneck 9.89405 0.690748 -8.21153
head 5.95254 -0.266502 -2.65958
rclavicle 2.78299e-014 1.03368e-014
rhumerus -11.5515 8.79131 -73.2342
rradius 22.4584
rwrist -7.4278
rhand -7.11755 27.6327
rfingers 7.12502
rthumb 18.7578 -1.48286
lclavicle 2.78299e-014 1.03368e-014
lhumerus -45.6251 -13.7989 90.7871
lradius 38.7813
lwrist 22.5014
lhand -3.84156 331.905
lfingers 7.12502
lthumb 21.9061 0.685135
rfemur -28.6566 -12.4489 20.1565
rtibia 49.4674
rfoot -37.9669 -18.0705
rtoes -8.08628
lfemur -44.4482 6.38156 -7.52897
ltibia 30.4343
lfoot -8.86812 2.78401
ltoes -4.733
548
root 4.48945 15.6648 -0.698804 193.346 87.5304 178.739
lowerback 25.7406 1.73663 3.7001
upperback 5.13213 3.69295 0.662344
thorax -8.3927 1.83913 -2.59466
lowerneck -17.8804 -0.362011 0.798757
upperneck 9.59356 0.585864 -8.27488
head 5.85929 -0.309281 -2.71343
rclavicle -4.77083e-014 -6.83819e-014
rhumerus -11.4634 8.00434 -73.3328
rradius 22.4083
rwrist -6.82822
rhand -7.0279 27.4639
rfingers 7.12502
rthumb 18.844 -1.64333
lclavicle -4.77083e-014 -6.83819e-014
lhumerus -45.6141 -13.7637 90.623
lradius 38.6796
lwrist 22.3505
lhand -3.29597 331.8
lfingers 7.12502
lthumb 22.4299 0.517373
rfemur -28.3198 -12.3932 20.2538
rtibia 49.1785
rfoot -37.7516 -18.2265
rtoes -8.69727
lfemur -44.3669 6.33854 -7.42227
ltibia 30.6969
lfoot -9.10278 2.8557
ltoes -5.2014
549
root 4.52144 15.6667 -0.72663 200.664 87.5995 186.199
lowerback 25.8202 1.75534 3.87028
upperback 4.99381 3.7579 0.633159
thorax -8.57064 1.8541 -2.75286
lowerneck -17.8464 -0.454223 0.976274
upperneck 9.43243 0.410582 -8.30883
head 5.79372 -0.386059 -2.7684
rclavicle -3.18055e-015 -1.98785e-014
rhumerus -11.65 7.73829 -73.4644
rradius 22.5669
rwrist -6.84588
rhand -7.17529 27.2883
rfingers 7.12502
rthumb 18.7022 -1.83268
lclavicle -3.18055e-015 -1.98785e-014
lhumerus -45.9054 -14.008 90.5801
lradius 38.7884
lwrist 22.0623
lhand -2.95175 332.245
lfingers 7.12502
lthumb 22.7603 0.922498
rfemur -27.9156 -12.247 20.4206
rtibia 48.8899
rfoot -37.6615 -18.2925
rtoes -9.00765
lfemur -44.2326 6.41192 -7.24181
ltibia 31.05
lfoot -9.20981 2.71439
ltoes -5.40802
550
root 4.55622 15.6698 -0.75857 210.068 87.5886 195.71
lowerback 26.0286 1.79243 4.1713
upperback 4.68403 3.88232 0.588339
thorax -8.99267 1.87732 -3.03507
lowerneck -17.4767 -0.542982 1.18343
upperneck 9.28568 0.218196 -8.2807
head 5.67604 -0.46001 -2.806
rclavicle 7.55382e-015 4.05521e-014
rhumerus -12.2522 7.50182 -73.6377
rradius 22.9711
rwrist -7.06729
rhand -7.42945 27.2808
rfingers 7.12502
rthumb 18.4577 -1.86354
lclavicle 7.55382e-015 4.05521e-014
lhumerus -46.4369 -14.2707 90.4951
lradius 38.8952
lwrist 21.5822
lhand -2.82415 332.837
lfingers 7.12502
lthumb 22.8827 1.49943
rfemur -27.4792 -12.1485 20.6557
rtibia 48.5639
rfoot -37.6386 -18.1444
rtoes -8.73907
lfemur -44.1601 6.60429 -7.03949
ltibia 31.4629
lfoot -9.2181 2.49484
ltoes -4.81469
551
root 4.59332 15.6675 -0.792666 218.609 87.6269 204.288
lowerback 25.6361 1.80756 4.1018
upperback 4.81165 3.8782 0.725181
thorax -8.66365 1.89437 -2.81672
lowerneck -17.6334 -0.554808 0.864266
upperneck 8.88807 0.226333 -8.06378
head 5.57566 -0.443743 -2.68024
rclavicle -7.95139e-016 -3.18055e-015
rhumerus -11.8954 7.68106 -73.5247
rradius 23.2366
rwrist -7.41182
rhand -7.82403 27.5494
rfingers 7.12502
rthumb 18.0781 -1.63041
lclavicle -7.95139e-016 -3.18055e-015
lhumerus -46.0747 -13.8252 90.2871
lradius 38.7533
lwrist 21.0917
lhand -2.8 332.693
lfingers 7.12502
lthumb 22.9059 1.35293
rfemur -27.1406 -11.9648 20.808
rtibia 48.2213
rfoot -37.4917 -18.1921
rtoes -8.92402
lfemur -44.14 6.61491 -6.80381
ltibia 31.9122
lfoot -9.41051 2.54782
ltoes -3.87878
552
root 4.63299 15.6689 -0.824229 226.076 87.682 211.77
lowerback 25.4973 1.89795 4.04027
upperback 4.75403 3.96391 0.699851
thorax -8.65298 1.93291 -2.83057
lowerneck -17.6823 -0.603376 0.884376
upperneck 8.63997 0.120038 -7.92148
head 5.49896 -0.479686 -2.64576
rclavicle 0 -2.14687e-014
rhumerus -11.8699 7.55778 -73.6201
rradius 23.5165
rwrist -7.89265
rhand -8.03718 27.7747
rfingers 7.12502
rthumb 17.8731 -1.42398
lclavicle 0 -2.14687e-014
lhumerus -46.0222 -13.952 90.0626
lradius 38.73
lwrist 20.9066
lhand -2.41769 332.542
lfingers 7.12502
lthumb 23.2727 1.15513
rfemur -26.8326 -11.6926 20.8792
rtibia 47.8741
rfoot -37.2996 -18.388
rtoes -9.38528
lfemur -44.1243 6.79574 -6.71692
ltibia 32.3485
lfoot -9.51179 2.4176
ltoes -3.51996
553
root 4.67309 15.6722 -0.859192 231.605 87.5615 217.327
lowerback 25.3867 1.88587 3.98065
upperback 4.67949 3.92623 0.725151
thorax -8.68821 1.9123 -2.75339
lowerneck -17.8121 -0.57799 1.03808
upperneck 8.52356 0.111016 -7.92347
head 5.48237 -0.479224 -2.67235
rclavicle 1.82882e-014 -1.98785e-014
rhumerus -11.8026 7.8764 -73.7357
rradius 23.8597
rwrist -8.82166
rhand -8.16249 27.8731
rfingers 7.12502
rthumb 17.7525 -1.33657
lclavicle 1.82882e-014 -1.98785e-014
lhumerus -46.0854 -13.9696 89.851
lradius 38.9439
lwrist 20.8044
lhand -1.82622 333.203
lfingers 7.12502
lthumb 23.8401 1.74346
rfemur -26.48 -11.5591 20.9802
rtibia 47.5538
rfoot -37.1852 -18.4803
rtoes -9.50234
lfemur -44.0873 6.72368 -6.52055
ltibia 32.7378
lfoot -9.47443 2.36229
ltoes -3.81824
554
root 4.71075 15.6719 -0.897708 234.019 87.3928 219.836
lowerback 25.1703 1.82955 3.83613
upperback 4.78938 3.81792 0.820792
thorax -8.47822 1.87703 -2.51701
lowerneck -17.9082 -0.516436 1.00049
upperneck 8.10633 0.163858 -7.80943
head 5.36816 -0.437643 -2.62072
rclavicle 3.93594e-014 3.73715e-014
rhumerus -11.3071 8.53567 -73.7261
rradius 24.0204
rwrist -9.95253
rhand -8.59528 27.9977
rfingers 7.12502
rthumb 17.336 -1.24912
lclavicle 3.93594e-014 3.73715e-014
lhumerus -45.8172 -14.018 89.765
lradius 39.0847
lwrist 20.96
lhand -1.6009 333.534
lfingers 7.12502
lthumb 24.0561 2.04608
rfemur -26.0535 -11.5239 21.0059
rtibia 47.2542
rfoot -37.1344 -18.5195
rtoes -9.60247
lfemur -44.003 6.52516 -6.35734
ltibia 33.0648
lfoot -9.39641 2.35127
ltoes -4.00954
555
root 4.75048 15.6707 -0.934405 236.747 87.3021 222.645
lowerback 25.5416 1.82307 3.76568
upperback 4.5487 3.7985 0.768614
thorax -8.94066 1.8457 -2.55585
lowerneck -17.782 -0.513551 0.868531
upperneck 7.78574 0.121972 -7.40893
head 5.24236 -0.424836 -2.47086
rclavicle 1.03368e-014 4.77083e-015
rhumerus -11.5894 9.12408 -73.9578
rradius 24.4189
rwrist -10.9487
rhand -9.19545 28.0827
rfingers 7.12502
rthumb 16.7583 -1.21407
lclavicle 1.03368e-014 4.77083e-015
lhumerus -45.9928 -14.5691 89.7314
lradius 39.0716
lwrist 21.4711
lhand -1.45608 333.49
lfingers 7.12502
lthumb 24.195 1.98408
rfemur -25.6319 -11.3598 20.9815
rtibia 46.9686
rfoot -37.1647 -18.499
rtoes -9.36042
lfemur -43.8949 6.36054 -6.22823
ltibia 33.3572
lfoot -9.41758 2.56895
ltoes -3.98698
556
root 4.79667 15.6745 -0.97062 240.081 87.1523 226.02
lowerback 25.4764 1.83207 3.73883
upperback 4.48873 3.79602 0.757512
thorax -8.97531 1.84138 -2.55049
lowerneck -17.8773 -0.592165 0.598504
upperneck 7.60865 0.0039716 -6.90061
head 5.19415 -0.453273 -2.27595
rclavicle -1.19271e-015 -3.81667e-014
rhumerus -12.058 9.5461 -74.0677
rradius 25.3617
rwrist -11.8605
rhand -9.45315 27.857
rfingers 7.12502
rthumb 16.5102 -1.46054
lclavicle -1.19271e-015 -3.81667e-014
lhumerus -45.9607 -15.1066 89.6527
lradius 39.0788
lwrist 21.805
lhand -1.51737 333.925
lfingers 7.12502
lthumb 24.1362 2.42678
rfemur -25.1907 -11.1423 21.0147
rtibia 46.6751
rfoot -37.2866 -18.3417
rtoes -8.54495
lfemur -43.8134 6.33823 -6.09828
ltibia 33.6275
lfoot -9.52402 2.70135
ltoes -3.32267
557
root 4.84638 15.6807 -1.0105 241.839 87.0457 227.866
lowerback 25.3943 1.82238 3.65464
upperback 4.44235 3.75053 0.716224
thorax -8.99011 1.81918 -2.53099
lowerneck -18.0676 -0.698999 0.585846
upperneck 7.55927 -0.163686 -6.69095
head 5.20103 -0.523254 -2.22466
rclavicle 2.22639e-014 2.54444e-014
rhumerus -12.3419 9.84435 -74.2162
rradius 26.0991
rwrist -12.6637
rhand -9.62271 27.8272
rfingers 7.12502
rthumb 16.3469 -1.50383
lclavicle 2.22639e-014 2.54444e-014
lhumerus -45.9203 -15.4656 89.4879
lradius 39.1723
lwrist 21.7708
lhand -1.95151 334.092
lfingers 7.12502
lthumb 23.7199 2.64842
rfemur -24.67 -11.0357 20.9425
rtibia 46.3459
rfoot -37.3343 -18.2778
rtoes -8.3278
lfemur -43.7286 6.46925 -6.14266
ltibia 33.9192
lfoot -9.44505 2.59703
ltoes -2.90538
